<svg version="1.1" id="logo" xmlns="http://www.w3.org/2000/svg" xmlns:xlink="http://www.w3.org/1999/xlink" x="0px" y="0px" viewBox="0 0 500 500" style="enable-background:new 0 0 500 500;" xml:space="preserve">
    <style type="text/css">
.st0 {
    fill: #002E6E;
}
</style>
    <g>
        <path class="st0" d="M126.07,280.91L126.07,280.91V152.13h51.74v128.49c0,19.99,16.18,36.17,36.17,36.17s36.16-16.18,36.16-36.17
		c0-19.99-16.17-36.16-36.16-36.16h-15.58V193h15.58c48.51,0,87.91,39.1,87.91,87.61c0,48.22-39.4,87.62-87.91,87.62
		C165.46,368.52,126.07,329.42,126.07,280.91 M351.86,291.2c16.17,0,29.4,13.23,29.4,29.1c0,16.17-13.23,29.1-29.4,29.1
		s-29.4-13.22-29.4-29.1C322.46,304.14,335.4,291.2,351.86,291.2 M351.86,212.7c16.17,0,29.4,13.23,29.4,29.11
		c0,16.17-13.23,29.1-29.4,29.1s-29.4-13.23-29.4-29.1C322.46,225.93,335.4,212.7,351.86,212.7 M487.4,249.45
		c0-130.55-106.14-236.68-237.27-236.68c-131.12,0-237.26,105.85-237.26,236.68v236.68h237.26C380.97,486.13,487.4,380,487.4,249.45
		"></path>
        <g>
            <path class="st0" d="M438.9,424.5c-9.42,0-16.48,7.06-16.48,16.48c0,9.42,7.06,17.07,16.48,16.48c8.83,0,16.48-7.06,16.48-16.48
			C455.38,431.56,448.32,424.5,438.9,424.5z M438.9,454.52c-7.65,0-13.53-5.3-13.53-13.54c0-7.65,5.89-13.54,13.53-13.54
			c7.65,0,13.54,5.89,13.54,13.54C452.44,449.22,446.55,454.52,438.9,454.52z"></path>
            <path class="st0" d="M445.47,437c0-3.26-2.72-5.44-5.98-5.44h-7.11v17.94h3.85v-6.52h2.17l3.27,6.52h4.89l-4.35-7.07
			C444.39,441.35,445.47,439.17,445.47,437z M438.19,439.72h-2.05v-4.9h2.05c2.28,0,3.42,0.55,3.42,2.18
			C441.61,439.17,439.89,439.72,438.19,439.72z"></path>
        </g>
    </g>
</svg>