<svg xmlns="http://www.w3.org/2000/svg" shape-rendering="geometricPrecision" text-rendering="geometricPrecision" image-rendering="optimizeQuality" fill-rule="evenodd" clip-rule="evenodd" viewBox="0 0 512 495.24"><path fill-rule="nonzero" d="M365.73 165.01a34.759 34.759 0 0 1-2.93-3.59c-2.15-2.96-4.18-6.05-6.13-9.15l-9.73-15.49c-3.7-5.38-5.64-10.3-5.64-14.19 0-3.9 2.21-8.98 6.61-10.11-.35-5.83-.58-11.75-.58-17.6 0-3.47.06-6.97.19-10.41.19-2.17.59-4.33 1.18-6.43 2.69-8.81 8.6-16.3 16.52-21 2.81-1.76 5.84-3.21 8.98-4.28 5.65-2.14 2.92-10.77 9.15-10.9 14.55-.38 38.48 12.08 47.81 22.19a36.898 36.898 0 0 1 9.53 23.92l-.6 25.48c2.59.63 4.62 2.65 5.26 5.24.78 3.12 0 7.39-2.73 13.43 0 .19-.19.19-.19.39l-11.09 18.29c-2.52 4.12-5.12 8.34-8.04 12.22-3.47 4.63-6.32 3.8-3.36 8.24 21.23 29.18 83.63 10.76 83.63 68.8h-98.73c0-39.53-17.83-56.44-40.18-66.31.71-.79 1.38-1.62 2.02-2.49 2.44-3.6 1.79-3.32-.95-6.25zM70.45 303.86v19.99c0 4.82 1.73 9.03 5.26 12.68 3.52 3.58 7.79 5.38 12.87 5.38h27.52c1.48 6.31 3.34 12.43 5.62 18.3 2.3 5.94 4.89 11.69 7.79 17.26l-21.4 21.33c-3.58 3.41-5.44 7.56-5.44 12.56 0 4.95 1.86 9.22 5.44 12.87l26.48 26.78c3.65 3.4 7.92 5.08 12.88 5.08 4.93 0 9.26-1.68 12.85-5.08l19.61-19.91c5.25 3.39 10.83 6.36 16.63 9.02 5.81 2.66 11.75 4.95 17.75 6.93v30.06c0 5.07 1.73 9.33 5.26 12.86 3.52 3.53 7.8 5.27 12.86 5.27h37.73c4.83 0 9.03-1.74 12.69-5.27 3.58-3.53 5.37-7.79 5.37-12.86v-27.52c6.31-1.48 12.43-3.34 18.3-5.63 5.94-2.29 11.7-4.89 17.26-7.8l21.34 21.41c3.41 3.59 7.61 5.45 12.68 5.45 5.13 0 9.34-1.86 12.74-5.45l26.79-26.47c3.4-3.66 5.07-7.93 5.07-12.87 0-4.95-1.67-9.27-5.07-12.87l-19.92-19.61c3.4-5.24 6.37-10.81 9.03-16.63 2.65-5.81 4.95-11.75 6.93-17.75h30.06c5.07 0 9.33-1.74 12.85-5.26 3.53-3.52 5.26-7.79 5.26-12.87v-29.38h-75c.1 1.93.15 3.88.15 5.83 0 30.57-12.4 58.25-32.42 78.28-20.03 20.03-47.71 32.42-78.27 32.42-30.57 0-58.26-12.39-78.28-32.42-20.03-20.03-32.42-47.71-32.42-78.28 0-1.96.04-3.9.15-5.83h-75zm271.64 0c.13 1.93.2 3.87.2 5.83 0 47.68-38.64 86.3-86.28 86.3-47.68 0-86.3-38.65-86.3-86.3 0-1.96.08-3.91.2-5.83h172.18zM5.3 256.92h501.4c2.92 0 5.3 2.44 5.3 5.31v19.84c0 2.88-2.43 5.3-5.3 5.3H5.3c-2.86 0-5.3-2.38-5.3-5.3v-19.84c0-2.92 2.39-5.31 5.3-5.31zm220.19-100.26c-6.95-6.18-15.67-11.51-16.85-24.36l-.75.02c-1.72-.02-3.38-.42-4.94-1.31-2.48-1.42-4.24-3.85-5.42-6.59-2.5-5.75-4.48-20.89 1.82-25.22l-1.18-.78-.14-1.68c-.24-3.04-.3-6.73-.36-10.6-.23-14.24-.52-31.48-11.96-34.94l-4.91-1.49 3.23-4c9.25-11.42 18.91-21.42 28.65-29.09C223.71 7.95 234.91 2.17 245.87.5c11.27-1.71 22.19.88 32.27 9.03 2.98 2.41 5.87 5.3 8.66 8.69 10.76 1.04 19.55 6.83 25.83 15.1 3.75 4.94 6.6 10.78 8.41 16.98 1.81 6.19 2.6 12.77 2.26 19.25-.61 11.6-4.85 22.93-13.4 31.2 1.5.05 2.92.4 4.17 1.07 4.77 2.55 4.93 8.09 3.67 12.74-1.23 3.89-2.81 8.4-4.3 12.19-1.8 5.1-4.44 6.06-9.54 5.51-.26 12.49-9.38 17.6-17.18 24.88 19.06 35.62 99.94 12.13 99.94 82.92H125.34c0-70.79 79.01-46.36 100.27-83.37l-.12-.03zm-131.4 5.63c-1.08-1.16-2.1-2.41-3.03-3.71-2.23-3.07-4.33-6.27-6.35-9.49l-10.08-16.04c-3.83-5.58-5.84-10.68-5.84-14.71 0-4.04 2.29-9.3 6.84-10.47-.36-6.04-.6-12.18-.6-18.25 0-3.59.07-7.22.21-10.78.19-2.25.6-4.48 1.21-6.65 2.79-9.13 8.91-16.9 17.13-21.76a44.33 44.33 0 0 1 9.29-4.45c5.86-2.21 3.03-11.15 9.49-11.29 15.07-.38 39.86 12.52 49.53 22.99a38.266 38.266 0 0 1 9.88 24.79l-.62 26.41a7.43 7.43 0 0 1 5.45 5.42c.8 3.24 0 7.66-2.83 13.91 0 .21-.2.21-.2.41l-11.49 18.95c-2.61 4.27-5.3 8.65-8.33 12.66-3.59 4.8-6.55 3.94-3.48 8.54.73 1 1.51 1.95 2.33 2.85-24.83 9.45-45.44 25.48-45.44 68.44H8.43c0-60.17 64.67-41.06 86.65-71.29 2.53-3.72 1.86-3.44-.99-6.48z"/></svg>