<?xml version="1.0" encoding="UTF-8"?>
<svg width="166px" height="24px" viewBox="0 0 166 24" version="1.1" xmlns="http://www.w3.org/2000/svg" xmlns:xlink="http://www.w3.org/1999/xlink">
    <!-- Generator: sketchtool 59.1 (101010) - https://sketch.com -->
    <title>2919913B-501E-44B9-835A-02265D284E09</title>
    <desc>Created with sketchtool.</desc>
    <defs>
        <linearGradient x1="4.29743521%" y1="49.0297827%" x2="103.773584%" y2="51.1643587%" id="linearGradient-1">
            <stop stop-color="#006FBA" offset="0%"></stop>
            <stop stop-color="#1EBAED" offset="50.5259321%"></stop>
            <stop stop-color="#89CB34" offset="100%"></stop>
        </linearGradient>
    </defs>
    <g id="App-Icon" stroke="none" stroke-width="1" fill="none" fill-rule="evenodd">
        <g id="logo_web" fill="url(#linearGradient-1)">
            <path d="M93.1162114,0 C92.4517603,0 91.78814,0.072777051 91.1245197,0.217291481 L91.1245197,0.217291481 C90.4602762,0.362429714 89.8325891,0.572235555 89.2412504,0.846916939 L89.2412504,0.846916939 C88.6492886,1.12243006 88.1080071,1.45470928 87.6176135,1.84562601 L87.6176135,1.84562601 C87.1265967,2.23654274 86.7369405,2.663848 86.4486447,3.12650211 L86.4486447,3.12650211 L86.4486447,1.21475295 L83.3330564,1.21475295 L83.3330564,22.8401417 L86.4486447,22.8401417 L86.4486447,9.81367342 C86.4486447,8.97424212 86.628518,8.1491583 86.9897186,7.33842195 L86.9897186,7.33842195 C87.3505037,6.52830941 87.8342507,5.81197529 88.4405442,5.18921167 L88.4405442,5.18921167 C89.04663,4.56686392 89.7538685,4.06761335 90.5622598,3.69104409 L90.5622598,3.69104409 C91.370028,3.31509864 92.2218299,3.12650211 93.1170423,3.12650211 L93.1170423,3.12650211 C94.0112161,3.12650211 94.8632257,3.30012736 95.671617,3.64758579 L95.671617,3.64758579 C96.4793852,3.99504423 97.1870392,4.47266962 97.7933326,5.0806699 L97.7933326,5.0806699 C98.3996261,5.68846224 98.8758957,6.39814245 99.2223492,7.208255 L99.2223492,7.208255 C99.5685949,8.01899134 99.7418216,8.88732553 99.7418216,9.81367342 L99.7418216,9.81367342 L99.7418216,22.8401417 L102.85741,22.8401417 L102.85741,9.81367342 C102.85741,8.48226926 102.59757,7.21574064 102.078097,6.01408756 L102.078097,6.01408756 C101.558625,4.81326622 100.858448,3.77109885 99.9783986,2.88758545 L99.9783986,2.88758545 C99.0975179,2.00490379 98.0660505,1.30270921 96.88275,0.781833462 L96.88275,0.781833462 C95.6988265,0.260749777 94.4432444,0 93.1162114,0 Z M111.683041,0.939031892 C110.236369,1.56179551 108.971025,2.41536635 107.886593,3.50078409 L107.886593,3.50078409 C106.801745,4.58640975 105.948281,5.85293837 105.326618,7.30036995 L105.326618,7.30036995 C104.704331,8.74800946 104.393603,10.2964972 104.393603,11.9464569 L104.393603,11.9464569 C104.393603,13.5964166 104.704331,15.1455281 105.326618,16.5925438 L105.326618,16.5925438 C105.948281,18.0403913 106.801745,19.306504 107.886593,20.3919217 L107.886593,20.3919217 C108.971025,21.4775474 110.236369,22.3317421 111.683041,22.9538819 L111.683041,22.9538819 C113.128882,23.5760217 114.676706,23.8872995 116.325475,23.8872995 L116.325475,23.8872995 C117.974244,23.8872995 119.521446,23.5760217 120.968117,22.9538819 L120.968117,22.9538819 C122.413958,22.3317421 123.679718,21.4775474 124.764565,20.3919217 L124.764565,20.3919217 C125.849413,19.306504 126.701838,18.0403913 127.324333,16.5925438 L127.324333,16.5925438 C127.945996,15.1455281 128.257348,13.5964166 128.257348,11.9464569 L128.257348,11.9464569 C128.257348,10.2964972 127.945996,8.74800946 127.324333,7.30036995 L127.324333,7.30036995 C126.701838,5.85293837 125.849413,4.58640975 124.764565,3.50078409 L124.764565,3.50078409 C123.679718,2.41536635 122.413958,1.56179551 120.968117,0.939031892 L120.968117,0.939031892 C119.521446,0.316684139 117.974244,0.00540629521 116.325475,0.00540629521 L116.325475,0.00540629521 C114.676706,0.00540629521 113.128882,0.316684139 111.683041,0.939031892 L111.683041,0.939031892 Z M112.876311,20.153213 C111.791463,19.690351 110.843701,19.0532399 110.034271,18.2425035 L110.034271,18.2425035 C109.224011,17.432391 108.587392,16.484002 108.125039,15.3983764 L108.125039,15.3983764 C107.662063,14.3127507 107.430678,13.1622495 107.430678,11.9464569 L107.430678,11.9464569 C107.430678,10.7306643 107.662063,9.57974719 108.125039,8.49432945 L108.125039,8.49432945 C108.587392,7.40891172 109.224011,6.46093865 110.034271,5.64999437 L110.034271,5.64999437 C110.843701,4.84008976 111.791463,4.2031866 112.876311,3.73970075 L112.876311,3.73970075 C113.960744,3.27704664 115.110603,3.04499181 116.325475,3.04499181 L116.325475,3.04499181 C117.540347,3.04499181 118.689999,3.27704664 119.774847,3.73970075 L119.774847,3.73970075 C120.859487,4.2031866 121.806418,4.84008976 122.616886,5.64999437 L122.616886,5.64999437 C123.426316,6.46093865 124.062935,7.40891172 124.525911,8.49432945 L124.525911,8.49432945 C124.988265,9.57974719 125.220064,10.7306643 125.220064,11.9464569 L125.220064,11.9464569 C125.220064,13.1622495 124.988265,14.3127507 124.525911,15.3983764 L124.525911,15.3983764 C124.062935,16.484002 123.426316,17.432391 122.616886,18.2425035 L122.616886,18.2425035 C121.806418,19.0532399 120.859487,19.690351 119.774847,20.153213 L119.774847,20.153213 C118.689999,20.6164909 117.540347,20.847714 116.325475,20.847714 L116.325475,20.847714 C115.110603,20.847714 113.960744,20.6164909 112.876311,20.153213 L112.876311,20.153213 Z M46.1996054,1.22702108 C44.767681,1.8497847 43.5160453,2.689216 42.44636,3.74552291 L42.44636,3.74552291 C41.3758438,4.80245363 40.5298577,6.0469412 39.9079863,7.47981736 L39.9079863,7.47981736 C39.2856994,8.91269353 38.9751791,10.4543194 38.9751791,12.1042791 L38.9751791,12.1042791 C38.9751791,13.7544468 39.2856994,15.2956568 39.9079863,16.7287409 L39.9079863,16.7287409 C40.5298577,18.161617 41.3758438,19.4067284 42.44636,20.4630353 L42.44636,20.4630353 C43.5160453,21.519966 44.767681,22.3593973 46.1996054,22.9815372 L46.1996054,22.9815372 C47.631322,23.603677 49.1714612,23.9149548 50.8202306,23.9149548 L50.8202306,23.9149548 C52.4689999,23.9149548 54.0093468,23.603677 55.4410635,22.9815372 L55.4410635,22.9815372 C56.8727801,22.3593973 58.1163153,21.519966 59.1724997,20.4630353 L59.1724997,20.4630353 C60.2280611,19.4067284 61.0667774,18.161617 61.6890643,16.7287409 L61.6890643,16.7287409 C62.310728,15.2956568 62.6220791,13.7544468 62.6220791,12.1042791 L62.6220791,12.1042791 C62.6220791,10.4543194 62.310728,8.91269353 61.6890643,7.47981736 L61.6890643,7.47981736 C61.0667774,6.0469412 60.2280611,4.80245363 59.1724997,3.74552291 L59.1724997,3.74552291 C58.1163153,2.689216 56.8727801,1.8497847 55.4410635,1.22702108 L55.4410635,1.22702108 C54.0093468,0.604881261 52.4689999,0.293603417 50.8202306,0.293603417 L50.8202306,0.293603417 C49.1714612,0.293603417 47.631322,0.604881261 46.1996054,1.22702108 L46.1996054,1.22702108 Z M48.1647108,18.3354502 C47.3376259,17.9736443 46.6197944,17.4885333 46.0103853,16.880533 L46.0103853,16.880533 C45.4007685,16.2727407 44.9147367,15.5561986 44.5520823,14.7313227 L44.5520823,14.7313227 C44.1892201,13.9064468 44.0083082,13.0310429 44.0083082,12.1042791 L44.0083082,12.1042791 C44.0083082,11.1781392 44.1892201,10.3021114 44.5520823,9.47723551 L44.5520823,9.47723551 C44.9147367,8.65215169 45.4007685,7.93581757 46.0103853,7.32781729 L46.0103853,7.32781729 C46.6197944,6.72002495 47.3376259,6.23553773 48.1647108,5.87310801 L48.1647108,5.87310801 C48.9917956,5.51151004 49.8697684,5.33039915 50.7986291,5.33039915 L50.7986291,5.33039915 C51.7274899,5.33039915 52.6044241,5.51151004 53.4317167,5.87310801 L53.4317167,5.87310801 C54.2588015,6.23553773 54.9766331,6.72002495 55.5860422,7.32781729 L55.5860422,7.32781729 C56.1956589,7.93581757 56.6816907,8.65215169 57.0443452,9.47723551 L57.0443452,9.47723551 C57.4069997,10.3021114 57.5887423,11.1781392 57.5887423,12.1042791 L57.5887423,12.1042791 C57.5887423,13.0310429 57.4069997,13.9064468 57.0443452,14.7313227 L57.0443452,14.7313227 C56.6816907,15.5561986 56.1956589,16.2727407 55.5860422,16.880533 L55.5860422,16.880533 C54.9766331,17.4885333 54.2588015,17.9736443 53.4317167,18.3354502 L53.4317167,18.3354502 C52.6044241,18.697672 51.7274899,18.8781591 50.7986291,18.8781591 L50.7986291,18.8781591 C49.8697684,18.8781591 48.9917956,18.697672 48.1647108,18.3354502 L48.1647108,18.3354502 Z M68.9388306,0.91033694 C67.9997923,1.27214285 67.1764462,1.76328398 66.4692076,2.38459206 L66.4692076,2.38459206 C65.7611382,3.00652394 65.1978399,3.7363738 64.7793125,4.57434956 L64.7793125,4.57434956 C64.3603697,5.41315705 64.1512099,6.30873065 64.1512099,7.26294175 L64.1512099,7.26294175 C64.1512099,8.88191923 64.6563506,10.2187297 65.6674629,11.2735811 L65.6674629,11.2735811 C66.6783674,12.3292642 67.8772458,13.0589061 69.2636826,13.4633386 L69.2636826,13.4633386 L71.6901028,14.2004661 C72.4116731,14.432313 72.9749714,14.6556346 73.3797902,14.8725102 L73.3797902,14.8725102 C73.7839859,15.0891779 74.0945062,15.3062614 74.3113511,15.523137 L74.3113511,15.523137 C74.5279884,15.7398047 74.6646588,15.9714437 74.7228165,16.2168063 L74.7228165,16.2168063 C74.7805587,16.4627927 74.8094298,16.7154331 74.8094298,16.975767 L74.8094298,16.975767 C74.8094298,17.5540326 74.5421124,18.1027716 74.0081005,18.6232315 L74.0081005,18.6232315 C73.4730502,19.1434834 72.7730813,19.4038173 71.9065324,19.4038173 L71.9065324,19.4038173 C71.3284869,19.4038173 70.8451553,19.2952756 70.4550836,19.0786079 L70.4550836,19.0786079 C70.0652196,18.8617323 69.7470142,18.5947445 69.5019213,18.2763968 L69.5019213,18.2763968 C69.2562052,17.9584651 69.0755011,17.5974909 68.960432,17.1924347 L68.960432,17.1924347 C68.8447398,16.7877942 68.7872053,16.3835697 68.7872053,15.9780976 L68.7872053,15.9780976 L63.7179354,15.9780976 C63.7179354,17.1348368 63.9345726,18.2046595 64.3678471,19.1871497 L64.3678471,19.1871497 C64.8009139,20.1700557 65.3858137,21.015725 66.1225465,21.7235338 L66.1225465,21.7235338 C66.8590716,22.4323823 67.7181431,22.988399 68.7003843,23.3928315 L68.7003843,23.3928315 C69.68221,23.7972639 70.7219857,24 71.819919,24 L71.819919,24 C72.8883581,24 73.9138021,23.8407222 74.8962509,23.5229984 L74.8962509,23.5229984 C75.8778689,23.2046508 76.7444179,22.7501061 77.4958978,22.1572851 L77.4958978,22.1572851 C78.2465469,21.5650878 78.8457784,20.8420998 79.2938,19.9891528 L79.2938,19.9891528 C79.7414062,19.1370375 79.9655208,18.1612012 79.9655208,17.0622677 L79.9655208,17.0622677 C79.9655208,15.1544693 79.4813584,13.6367559 78.5140721,12.5093354 L78.5140721,12.5093354 C77.5459549,11.3821228 76.2826877,10.5439391 74.7228165,9.99436844 L74.7228165,9.99436844 L72.3398068,9.17053223 C72.0216014,9.05554448 71.675148,8.93972501 71.3000312,8.82369759 L71.3000312,8.82369759 C70.9242912,8.70850192 70.5703604,8.56357162 70.2384464,8.3901543 L70.2384464,8.3901543 C69.9061169,8.21673699 69.6321529,7.99986138 69.4155156,7.7397354 L69.4155156,7.7397354 C69.1988784,7.47960943 69.0902482,7.17602516 69.0902482,6.82898259 L69.0902482,6.82898259 C69.0902482,6.16442415 69.350296,5.65831175 69.8701838,5.31147711 L69.8701838,5.31147711 C70.3902794,4.96464248 70.9820334,4.79122517 71.6466923,4.79122517 L71.6466923,4.79122517 C72.0799668,4.79122517 72.4407519,4.87127992 72.7298785,5.02972596 L72.7298785,5.02972596 C73.0181743,5.18900373 73.2497663,5.37656059 73.422993,5.5934362 L73.422993,5.5934362 C73.5964275,5.81010388 73.7264513,6.03446513 73.8130647,6.26548029 L73.8130647,6.26548029 C73.8996781,6.49711924 73.9572126,6.6846761 73.9862914,6.82898259 L73.9862914,6.82898259 L79.055769,6.82898259 C78.9974037,6.22222992 78.8173227,5.54332401 78.5140721,4.79122517 L78.5140721,4.79122517 C78.2108215,4.03995807 77.7700696,3.33859523 77.1924395,2.68817633 L77.1924395,2.68817633 C76.614394,2.03796536 75.8928238,1.48901846 75.0260671,1.04050389 L75.0260671,1.04050389 C74.1597258,0.592613129 73.1197424,0.368459812 71.9065324,0.368459812 L71.9065324,0.368459812 C70.8667567,0.368459812 69.8770381,0.549362768 68.9388306,0.91033694 L68.9388306,0.91033694 Z M37.0647004,0.622763622 C36.3194517,0.752306773 35.560702,0.968766516 34.7872053,1.27151905 L34.7872053,1.27151905 C34.0137086,1.57406365 33.2616056,1.97080254 32.5313117,2.46090399 L32.5313117,2.46090399 C31.8006023,2.95142132 31.1486136,3.55713432 30.5757607,4.27741919 L30.5757607,4.27741919 L30.5757607,1.42268738 L25.5908194,1.42268738 L25.5908194,23.0480762 L30.5757607,23.0480762 L30.5757607,13.4897462 C30.5757607,12.2785282 30.81213,11.1908232 31.2848686,10.2243439 L31.2848686,10.2243439 C31.7573995,9.25848849 32.3659778,8.44421726 33.1112265,7.78069849 L33.1112265,7.78069849 C33.8558521,7.11759558 34.6939454,6.61293872 35.6252986,6.26693583 L35.6252986,6.26693583 C36.5560287,5.92093293 37.4796967,5.74793149 38.3971337,5.74793149 L38.3971337,5.74793149 L39.0846401,0.428136994 C38.4829162,0.428136994 37.8095337,0.493012537 37.0647004,0.622763622 L37.0647004,0.622763622 Z M7.00467338,1.49400889 C5.60805899,2.1015933 4.39194101,2.92023115 3.35673486,3.9507542 L3.35673486,3.9507542 C2.3211133,4.98190104 1.50316751,6.19582225 0.901858968,7.5935575 L0.901858968,7.5935575 C0.300135009,8.99129275 0,10.4948666 0,12.1044871 L0,12.1044871 C0,13.7141075 0.300135009,15.2178893 0.901858968,16.6156245 L0.901858968,16.6156245 C1.50316751,18.0133598 2.3211133,19.2279048 3.35673486,20.2582199 L3.35673486,20.2582199 C4.39194101,21.2893668 5.60805899,22.1080046 7.00467338,22.7151731 L7.00467338,22.7151731 C8.40149548,23.3217179 9.90383217,23.625718 11.5123066,23.625718 L11.5123066,23.625718 C12.7251013,23.625718 13.9100634,23.4629054 15.0674006,23.1385277 L15.0674006,23.1385277 C16.2241147,22.8135261 17.3106242,22.2986805 18.326306,21.5923272 L18.326306,21.5923272 C19.3421955,20.8870136 20.2448852,19.9689831 21.0349984,18.8392753 L21.0349984,18.8392753 C21.8246962,17.7101914 22.4596531,16.3401114 22.9396614,14.7306989 L22.9396614,14.7306989 L17.5646485,14.7306989 C17.0844324,15.945036 16.3225672,16.912139 15.2792606,17.632216 L15.2792606,17.632216 C14.2349154,18.3522929 12.9789179,18.7122274 11.5123066,18.7122274 L11.5123066,18.7122274 C10.6372417,18.7122274 9.80475646,18.5500386 9.01505868,18.225245 L9.01505868,18.225245 C8.22473777,17.9008673 7.53370028,17.4560955 6.94111538,16.8909297 L6.94111538,16.8909297 C6.34873819,16.3263877 5.86852217,15.6624531 5.50233669,14.9001655 L5.50233669,14.9001655 C5.13511268,14.1376699 4.93737667,13.3188241 4.90975179,12.4432122 L4.90975179,12.4432122 L23.0667774,12.4432122 C23.0383217,10.8907738 22.7491951,9.39364587 22.1991899,7.953492 L22.1991899,7.953492 C21.648977,6.51333813 20.8796344,5.24992852 19.8924083,4.16243145 L19.8924083,4.16243145 C18.9043514,3.07576611 17.7054731,2.20743192 16.2947347,1.55742889 L16.2947347,1.55742889 C14.8835808,0.908257596 13.2898536,0.583464014 11.5123066,0.583464014 L11.5123066,0.583464014 C9.90383217,0.583464014 8.40149548,0.887256219 7.00467338,1.49400889 L7.00467338,1.49400889 Z M7.69342611,6.01159234 C8.79239796,5.15822944 10.0799668,4.73092418 11.555094,4.73092418 L11.555094,4.73092418 C13.0302212,4.73092418 14.3169592,5.15822944 15.4165542,6.01159234 L15.4165542,6.01159234 C16.515526,6.86599492 17.2823762,7.90067665 17.7162738,9.11646927 L17.7162738,9.11646927 L5.39391422,9.11646927 C5.82760411,7.90067665 6.59403884,6.86599492 7.69342611,6.01159234 L7.69342611,6.01159234 Z M162.884412,1.21475295 L162.884412,14.1547205 C162.884412,15.0814843 162.710146,15.9500264 162.361616,16.760139 L162.361616,16.760139 C162.012878,17.5708753 161.540347,18.2797238 160.944854,18.8877241 L160.944854,18.8877241 C160.349154,19.4955164 159.6442,19.9731418 158.831031,20.3206002 L158.831031,20.3206002 C158.01724,20.6678507 157.145498,20.8416839 156.216222,20.8416839 L156.216222,20.8416839 C155.315194,20.8416839 154.465261,20.6755443 153.666424,20.3424334 L153.666424,20.3424334 C152.866964,20.0097383 152.162841,19.5464603 151.552602,18.9528075 L151.552602,18.9528075 C150.942362,18.3599865 150.463184,17.657584 150.114446,16.8468476 L150.114446,16.8468476 C149.765708,16.0367351 149.591235,15.1390821 149.591235,14.1547205 L149.591235,14.1547205 L149.591235,1.21475295 L146.475646,1.21475295 L146.475646,14.1547205 C146.475646,15.0814843 146.29515,15.9500264 145.934573,16.760139 L145.934573,16.760139 C145.573164,17.5708753 145.090041,18.2797238 144.483747,18.8877241 L144.483747,18.8877241 C143.877661,19.4955164 143.170007,19.9731418 142.362031,20.3206002 L142.362031,20.3206002 C141.55364,20.6678507 140.701838,20.8416839 139.807457,20.8416839 L139.807457,20.8416839 C138.883165,20.8416839 138.01724,20.6678507 137.209471,20.3206002 L137.209471,20.3206002 C136.400872,19.9731418 135.700904,19.4955164 135.109565,18.8877241 L135.109565,18.8877241 C134.517395,18.2797238 134.048603,17.5708753 133.70215,16.760139 L133.70215,16.760139 C133.355696,15.9500264 133.18247,15.0814843 133.18247,14.1547205 L133.18247,14.1547205 L133.18247,1.21475295 L130.066881,1.21475295 L130.066881,14.1547205 C130.066881,15.5156514 130.32049,16.7890419 130.828123,17.9757237 L130.828123,17.9757237 C131.335341,19.1630293 132.024509,20.197711 132.894797,21.0803926 L132.894797,21.0803926 C133.764669,21.963906 134.78679,22.6652689 135.961574,23.1865605 L135.961574,23.1865605 C137.135944,23.7074363 138.404196,23.9679781 139.767993,23.9679781 L139.767993,23.9679781 C141.508152,23.9679781 143.088587,23.562298 144.50971,22.7521855 L144.50971,22.7521855 C145.930419,21.9422809 147.090664,20.8416839 147.99003,19.4520581 L147.99003,19.4520581 C148.859902,20.8416839 150.012878,21.9422809 151.448333,22.7521855 L151.448333,22.7521855 C152.883996,23.562298 154.471908,23.9679781 156.21186,23.9679781 L156.21186,23.9679781 C157.54554,23.9679781 158.807145,23.7074363 159.996677,23.1865605 L159.996677,23.1865605 C161.185585,22.6652689 162.229723,21.963906 163.128882,21.0803926 L163.128882,21.0803926 C164.027417,20.197711 164.731125,19.1630293 165.238758,17.9757237 L165.238758,17.9757237 C165.745768,16.7890419 166,15.5156514 166,14.1547205 L166,14.1547205 L166,1.21475295 L162.884412,1.21475295 Z" id="Fill-1"></path>
        </g>
    </g>
</svg>